<?xml version="1.0" encoding="UTF-8"?>
<svg width="62px" height="51px" viewBox="0 0 62 51" version="1.1" xmlns="http://www.w3.org/2000/svg" xmlns:xlink="http://www.w3.org/1999/xlink">
    <title>40EC5275-D9B2-47CB-AD42-16197D1781C1</title>
    <g id="Page-1" stroke="none" stroke-width="1" fill="none" fill-rule="evenodd">
        <g id="D_001_1_B&amp;B_homepage" transform="translate(-84.000000, -57.000000)" fill="#F3F5F5">
            <g id="hero" transform="translate(0.000000, -2.000000)">
                <g id="B&amp;B-Italia-logo" transform="translate(84.000000, 59.500000)">
                    <path d="M2.22923628,49.2206444 L5.78556086,49.2206444 L5.78556086,27.7040573 L2.22923628,27.7040573 L2.22923628,49.2206444 Z M1.51694511,49.9316229 L6.49653938,49.9316229 L6.49653938,26.9918854 L1.51694511,26.9918854 L1.51694511,49.9316229 Z" id="Fill-7"></path>
                    <path d="M8.67696897,22.8739857 L8.61252983,22.7889021 L8.65501193,11.9157518 C10.2849642,11.8306683 12.1081146,11.723747 13.1156325,13.2029833 C14.1877088,15.0892601 14.1669451,17.8130072 13.7161098,19.9788783 C13.5447494,20.6656325 13.351432,21.3084726 12.9442721,21.8883055 C12.001074,23.2811456 10.178043,22.7451074 8.67696897,22.8739857 L8.67696897,22.8739857 Z M12.4508353,2.69439141 C13.2663484,4.36682578 13.1156325,6.68341289 12.7947494,8.50656325 C12.6015513,9.36336516 11.9367542,10.1789976 11.0786396,10.5217184 C10.3494033,10.8218377 9.49128878,10.9288783 8.65501193,10.8862768 L8.61252983,1.49355609 C10.027327,1.51551313 11.7860382,1.17147971 12.4508353,2.69439141 L12.4508353,2.69439141 Z M50.2818616,11.9157518 C51.9118138,11.8306683 53.7349642,11.723747 54.7424821,13.2029833 C55.8145585,15.0892601 55.7926014,17.8130072 55.3416468,19.9788783 C55.1702864,20.6656325 54.9782816,21.3084726 54.5699284,21.8883055 C53.6267303,23.2811456 51.80358,22.7451074 50.3026253,22.8739857 L50.2381862,22.7889021 L50.2818616,11.9157518 Z M54.077685,2.69439141 C54.8920048,4.36682578 54.7424821,6.68341289 54.4204057,8.50656325 C54.2272076,9.36336516 53.5624105,10.1789976 52.7041766,10.5217184 C51.976253,10.8218377 51.1181384,10.9288783 50.2818616,10.8862768 L50.2381862,1.49355609 C51.6540573,1.51551313 53.4128878,1.17147971 54.077685,2.69439141 L54.077685,2.69439141 Z M17.6831742,22.5531026 C19.2850835,21.6026253 20.1590692,19.9946301 20.3121718,18.2785203 C20.4300716,18.8472554 20.6110979,19.3893795 20.8529833,19.871957 C22.2033413,22.8739857 25.378043,23.9034606 28.3582339,24.225537 C31.9400955,24.3968974 35.6069212,23.8609785 37.6440334,20.7081146 C38.8448687,19.0138425 38.8885442,16.2268496 37.9661098,14.3818616 C38.8448687,14.1898568 39.6810263,13.9102625 40.452864,13.4593079 C41.7193317,12.7312649 42.5980907,11.4016706 43.0052506,10.1363962 C43.0622912,9.94439141 43.1060859,9.74749403 43.1437947,9.54940334 L43.1437947,22.8315036 L41.7205251,22.8315036 L41.7205251,23.898568 L51.3539379,23.898568 C54.1202864,23.8767303 57.0797136,24.0323389 59.3100239,22.5531026 C61.7335322,21.1152745 62.5272076,18.177685 61.6047733,15.6264916 C60.8317422,12.9670644 57.9584726,11.5511933 55.3854415,11.2727924 C57.4224344,10.8862768 59.4813842,9.85811456 60.5108592,7.88424821 C61.1538186,6.66157518 61.1538186,4.86026253 60.4245823,3.65942721 C59.0742243,1.25775656 56.4793556,0.53221957 53.8843675,0.425178998 L41.7205251,0.425178998 L41.7205251,1.49236277 L43.1437947,1.49236277 L43.1437947,7.30202864 C42.9785203,6.45847255 42.6211217,5.66491647 42.0400955,5.03162291 C41.3328162,4.28174224 40.3458234,3.89522673 39.3176611,4.13102625 C38.6309069,4.30238663 37.9867542,4.90286396 37.8372315,5.61145585 C37.6440334,6.38317422 37.8591885,7.15501193 38.4801909,7.64844869 C38.9736277,8.0774463 39.7454654,8.16384248 40.3458234,7.94868735 C41.0325776,7.71288783 41.4615752,7.00429594 41.6110979,6.36133652 C41.9757757,6.83293556 42.0400955,7.62661098 41.7837709,8.18448687 C41.5041766,8.91372315 40.7324582,9.3853222 40.0250597,9.60047733 C38.3939141,10.0076372 36.5282816,9.92124105 34.8352029,10.0501193 C32.7118138,10.350358 30.6322196,11.1865155 29.3670644,13.1385442 C28.422673,14.575179 28.0361575,16.8054893 28.9585919,18.3927208 C29.3670644,19.0356802 30.0306683,19.4866348 30.7392601,19.5935561 C31.5316229,19.7649165 32.1321002,19.3577566 32.647494,18.8424821 C33.1627685,18.2639618 33.3122912,17.2988067 32.9694511,16.5915274 C32.6693317,15.9473747 32.0045346,15.5400955 31.3177804,15.4976134 C30.5885442,15.4538186 29.9455847,15.8196897 29.5590692,16.4626492 C29.5590692,16.1831742 29.6879475,15.9047733 29.8167064,15.6689737 C30.8886635,14.0816229 32.926969,13.7815036 34.7063246,14.1678998 C35.8634845,14.4256563 37.0861575,15.4976134 37.4082339,16.6984487 C37.7084726,18.177685 37.2149165,19.5717184 36.2718377,20.6436754 C34.4268496,22.6819809 31.4466587,23.2386635 28.9585919,22.3173031 C27.5863962,21.8020286 26.45,20.3872315 26.1705251,18.9931981 C25.7852029,16.9986874 25.7414081,14.5107399 26.6433174,12.7312649 C27.5645585,11.1221957 29.3451074,10.950716 30.9749403,10.8437947 C31.124463,10.6504773 31.0175418,10.3077566 31.0601432,10.0501193 C30.3101432,10.0076372 29.4946301,9.9650358 28.8736277,9.55668258 C27.9936754,8.99880668 27.6933174,8.0349642 27.5863962,7.06873508 C27.4794749,5.16050119 27.1792363,2.80143198 29.0874702,1.77195704 C30.1594272,1.10835322 31.6824582,1.40847255 32.7118138,1.96515513 C33.4836516,2.52303103 34.1059666,3.33735084 33.9770883,4.25990453 C33.6124105,3.8101432 33.1627685,3.55250597 32.6693317,3.38114558 C32.1539379,3.2522673 31.55358,3.31670644 31.1038186,3.55250597 C30.5034606,3.87458234 30.0306683,4.49570406 29.9880668,5.1823389 C29.8811456,5.88973747 30.2020286,6.46825776 30.6322196,6.94105012 C31.2752983,7.60596659 32.2609785,7.84164678 33.1834129,7.56336516 C34.0196897,7.30572792 34.7063246,6.51205251 34.9421241,5.69653938 C35.3712411,3.93902148 34.6844869,2.26539379 33.2272076,1.19331742 C30.8886635,-0.350238663 27.2436754,-0.178878282 24.9064439,1.25775656 C23.2328162,2.13651551 22.2677804,3.91718377 22.2896181,5.80465394 C22.3115752,7.86360382 24.197852,9.55668258 25.9347255,10.2859189 C24.047136,10.5642005 22.2677804,11.4867542 21.153222,13.1385442 C20.5357995,14.0136038 20.2210024,15.1451074 20.1639618,16.3034606 C20.1091885,16.0761337 20.0582339,15.8488067 19.9779236,15.6264916 C19.2060859,12.9670644 16.3329356,11.5511933 13.7585919,11.2727924 C15.7968974,10.8862768 17.8545346,9.85811456 18.8853222,7.88424821 C19.5282816,6.66157518 19.5282816,4.86026253 18.798926,3.65942721 C17.447494,1.25775656 14.8536993,0.53221957 12.2588305,0.425178998 L0.0949880668,0.425178998 L0.0949880668,1.49236277 L1.51694511,1.49236277 L1.51694511,22.8315036 L0.0949880668,22.8315036 L0.0949880668,23.898568 L9.72708831,23.898568 C12.4946301,23.8767303 15.4541766,24.0323389 17.6831742,22.5531026 L17.6831742,22.5531026 Z" id="Fill-9"></path>
                    <path d="M15.1028759,49.2205489 L11.1904654,49.2205489 L11.1904654,30.193222 L7.91850835,30.193222 L7.91850835,27.7039618 L18.3747136,27.7039618 L18.3747136,30.193222 L15.1113484,30.193222 L15.1028759,49.2205489 Z M19.0858115,30.9043198 L19.0858115,26.9919093 L7.20752983,26.9919093 L7.20752983,30.9043198 L10.4685084,30.9043198 L10.4793675,49.9316468 L15.8151671,49.9316468 L15.8016826,30.9043198 L19.0858115,30.9043198 Z" id="Fill-10"></path>
                    <path d="M52.4976492,40.0077685 L53.6437112,32.8100358 L54.8968138,40.0077685 L52.4976492,40.0077685 Z M53.5379833,30.122685 L51.6906086,40.7297255 L55.7039737,40.7297255 L53.835716,30.122685 L53.5379833,30.122685 Z" id="Fill-11"></path>
                    <path d="M42.1264916,49.2206444 L45.6828162,49.2206444 L45.6828162,27.7040573 L42.1264916,27.7040573 L42.1264916,49.2206444 Z M41.4155131,49.9316229 L46.3951074,49.9316229 L46.3951074,26.9918854 L41.4155131,26.9918854 L41.4155131,49.9316229 Z" id="Fill-12"></path>
                    <path d="M57.1684845,49.2205489 L56.0649045,43.2104057 L51.2651432,43.2104057 L50.2041647,49.2205489 L47.8048807,49.2205489 L51.2871002,27.7039618 L57.3386516,27.7039618 L60.8839976,49.2205489 L57.1684845,49.2205489 Z M50.7146659,26.9919093 L47.0403222,49.9316468 L50.8410382,49.9316468 L51.8387709,43.9213842 L55.5555967,43.9213842 L56.5534487,49.9316468 L61.7116826,49.9316468 L57.9536874,26.9919093 L50.7146659,26.9919093 Z" id="Fill-13"></path>
                    <path d="M40.0699523,46.7313604 L40.0699523,49.2205012 L32.7167303,49.2205012 L32.7167303,27.7040334 L36.2730549,27.7040334 L36.2730549,46.7313604 L40.0699523,46.7313604 Z M36.9852267,26.9918616 L32.0045585,26.9918616 L32.0045585,49.931599 L40.7809308,49.931599 L40.7809308,46.0190692 L36.9852267,46.0190692 L36.9852267,26.9918616 Z" id="Fill-14"></path>
                    <path d="M26.7210501,49.2205489 L25.6162768,43.2104057 L20.8178282,43.2104057 L19.7567303,49.2205489 L17.356253,49.2205489 L20.8396659,27.7039618 L26.8900239,27.7039618 L30.4365632,49.2205489 L26.7210501,49.2205489 Z M20.2659189,26.9919093 L16.5928878,49.9316468 L20.3936038,49.9316468 L21.3914558,43.9213842 L25.106969,43.9213842 L26.104821,49.9316468 L31.2642482,49.9316468 L27.506253,26.9919093 L20.2659189,26.9919093 Z" id="Fill-15"></path>
                    <path d="M22.0489976,40.0077685 L23.1963723,32.8100358 L24.4481623,40.0077685 L22.0489976,40.0077685 Z M23.0893317,30.122685 L21.2431504,40.7297255 L25.2553222,40.7297255 L23.3871838,30.122685 L23.0893317,30.122685 Z" id="Fill-16"></path>
                </g>
            </g>
        </g>
    </g>
</svg>